<svg xmlns="http://www.w3.org/2000/svg" width="1000" height="1000" viewBox="0 0 1000 1000">
  <metadata><?xpacket begin="﻿" id="W5M0MpCehiHzreSzNTczkc9d"?>
<x:xmpmeta xmlns:x="adobe:ns:meta/" x:xmptk="Adobe XMP Core 5.6-c142 79.160924, 2017/07/13-01:06:39        ">
   <rdf:RDF xmlns:rdf="http://www.w3.org/1999/02/22-rdf-syntax-ns#">
      <rdf:Description rdf:about=""/>
   </rdf:RDF>
</x:xmpmeta>
                                                                                                    
                                                                                                    
                                                                                                    
                                                                                                    
                                                                                                    
                                                                                                    
                                                                                                    
                                                                                                    
                                                                                                    
                                                                                                    
                                                                                                    
                                                                                                    
                                                                                                    
                                                                                                    
                                                                                                    
                                                                                                    
                                                                                                    
                                                                                                    
                                                                                                    
                                                                                                    
                           
<?xpacket end="w"?></metadata>
<defs>
    <style>
      .cls-1 {
        fill: #3a3a3a;
      }

      .cls-1, .cls-2 {
        fill-rule: evenodd;
      }

      .cls-2 {
        fill: red;
      }
    </style>
  </defs>
  <path class="cls-1" d="M732.393,717.286l-3.608,4.272,20.608,24.351-10.008,11.826,49.708,103.319L774.646,878.11,687.23,819.364,677.209,831.2l-20.6-24.359-3.615,4.271L227.9,308.8l3.608-4.272-20.6-24.351,72.177-85.289L303.7,219.241l3.608-4.263Z"/>
  <path class="cls-1" d="M824.994,901.672l-17.082,15.341-65.9-73.671L759.092,828Z"/>
  <path class="cls-2" d="M812.741,907.29l3.207-.374,2.076-4.541,0.741,2.555,4.025-4.721-2.007,4.51,4.435-3.1-3.989,4.741,3.152-.291-4.447,3.162,0.665,2.626-3.207.375-2.077,4.541-0.741-2.555-4.025,4.72,2.008-4.509-4.436,3.1,3.989-4.741-3.152.291,4.448-3.162-0.665-2.627"/>
  <path class="cls-2" d="M575,600a25,25,0,1,1-25-25A25,25,0,0,1,575,600Zm-25-16.25A16.25,16.25,0,1,0,566.25,600,16.25,16.25,0,0,0,550,583.75Z"/>
</svg>
